<svg id="svg_pad" cursor="pointer" width="220px" height="220px" viewBox="0 0 100 100" xmlns="http://www.w3.org/2000/svg"><g style="opacity:1;" transform="translate(25,21) scale(1.1,1.1)"><path d="M 24.88,8.00
           C 27.62,0.00 18.00,-2.00 15.00,2.88
             11.75,6.38 10.88,8.88 9.12,12.25
             7.38,17.75 12.38,25.00 20.25,17.38
             23.25,13.00 23.12,12.12 24.88,8.00 Z" fill="none" stroke="#fff" stroke-width="2" stroke-miterlimit="0" stroke-linecap="round" style="transition: stroke-dashoffset 0.5708s ease-in-out; stroke-dasharray: 57.08, 57.08; stroke-dashoffset: 0;"></path><path d="M 21.50,15.50
           C 15.25,25.00 14.38,28.25 7.25,34.62" fill="none" stroke="#fff" stroke-width="2" stroke-miterlimit="0" stroke-linecap="round" style="transition: stroke-dashoffset 0.239575s ease-in-out 0.6208s; stroke-dasharray: 23.9575, 23.9575; stroke-dashoffset: 0;"></path><path d="
           M 2.50,29.12
           C -3.75,36.00 3.12,34.62 4.50,34.62
             5.75,34.62 10.88,34.50 13.88,34.38
             15.75,34.38 21.50,33.62 15.38,39.88" fill="none" stroke="#fff" stroke-width="2" stroke-miterlimit="0" stroke-linecap="round" style="transition: stroke-dashoffset 0.297258s ease-in-out 0.910376s; stroke-dasharray: 29.7258, 29.7258; stroke-dashoffset: 0;"></path><path d="M 34.38,21.00
           C 24.62,38.25 33.75,38.88 43.88,21.00
             16.38,71.62 38.12,52.00 41.00,46.25" fill="none" stroke="#fff" stroke-width="2" stroke-miterlimit="0" stroke-linecap="round" style="transition: stroke-dashoffset 0.839203s ease-in-out 1.25763s; stroke-dasharray: 83.9203, 83.9203; stroke-dashoffset: 0;"></path></g><line x1="5" y1="60" x2="95" y2="60" stroke="#fff" stroke-width="1px" stroke-linecap="round"></line></svg>