<svg id="svg_pad" cursor="pointer" width="220px" height="220px" viewBox="0 0 100 100" xmlns="http://www.w3.org/2000/svg"><g style="opacity:1;" transform="translate(23,13) scale(1.1,1.1)"><path d="M 9.62,12.00
           C 30.25,-9.12 26.38,3.38 25.62,5.75
             24.12,9.00 1.62,57.88 0.38,60.75" fill="none" stroke="#fff" stroke-width="2" stroke-miterlimit="0" stroke-linecap="round" style="transition: stroke-dashoffset 0.870042s ease-in-out; stroke-dasharray: 87.0042, 87.0042; stroke-dashoffset: 0;"></path><path d="M 12.00,35.00
           C 15.38,31.38 15.62,31.00 18.50,28.62
             24.25,25.50 23.75,30.75 22.25,33.75
             15.25,45.88 24.62,42.00 27.75,36.25" fill="none" stroke="#fff" stroke-width="2" stroke-miterlimit="0" stroke-linecap="round" style="transition: stroke-dashoffset 0.377345s ease-in-out 0.920042s; stroke-dasharray: 37.7345, 37.7345; stroke-dashoffset: 0;"></path><path d="M 48.00,7.88
          L 23.62,61.25 " fill="none" stroke="#fff" stroke-width="2" stroke-miterlimit="0" stroke-linecap="round" style="transition: stroke-dashoffset 0.586749s ease-in-out 1.34739s; stroke-dasharray: 58.6749, 58.6749; stroke-dashoffset: 0;"></path><path d="M 35.50,35.12
           C 39.00,31.62 39.50,30.75 42.00,29.12
             45.75,27.12 46.75,29.62 45.62,33.25
             38.50,48.12 49.25,40.62 51.50,36.50" fill="none" stroke="#fff" stroke-width="2" stroke-miterlimit="0" stroke-linecap="round" style="transition: stroke-dashoffset 0.363712s ease-in-out 1.98414s; stroke-dasharray: 36.3712, 36.3712; stroke-dashoffset: 0;"></path></g><line x1="5" y1="60" x2="95" y2="60" stroke="#fff" stroke-width="1px" stroke-linecap="round"></line></svg>