<svg id="svg_pad" cursor="pointer" width="220px" height="220px" viewBox="0 0 100 100" xmlns="http://www.w3.org/2000/svg"><g style="opacity:1;" transform="translate(19,22) scale(1.1,1.1)"><path d="M 4.12,27.50
           C 16.50,15.75 18.00,20.00 14.00,27.50
             9.00,37.88 20.50,31.50 26.12,23.38" fill="none" stroke="#fff" stroke-width="2" stroke-miterlimit="0" stroke-linecap="round" style="transition: stroke-dashoffset 0.435385s ease-in-out; stroke-dasharray: 43.5385, 43.5385; stroke-dashoffset: 0;"></path><path d="M 37.00,0.00
           C 35.88,2.75 17.12,43.38 14.25,47.88
             12.75,50.38 2.00,57.38 0.88,51.50
             0.75,47.88 11.62,48.12 15.12,52.00
             19.25,57.12 22.50,50.75 23.88,49.62" fill="none" stroke="#fff" stroke-width="2" stroke-miterlimit="0" stroke-linecap="round" style="transition: stroke-dashoffset 0.967422s ease-in-out 0.485385s; stroke-dasharray: 96.7422, 96.7422; stroke-dashoffset: 0;"></path><path d="M 37.62,20.00
           C 27.12,42.50 41.38,30.25 43.88,24.62" fill="none" stroke="#fff" stroke-width="2" stroke-miterlimit="0" stroke-linecap="round" style="transition: stroke-dashoffset 0.269548s ease-in-out 1.50281s; stroke-dasharray: 26.9548, 26.9548; stroke-dashoffset: 0;"></path><path d="M 55.75,0.00
           C 52.75,6.00 37.12,39.75 34.00,46.62
             29.62,60.38 40.38,52.12 46.62,44.25" fill="none" stroke="#fff" stroke-width="2" stroke-miterlimit="0" stroke-linecap="round" style="transition: stroke-dashoffset 0.755994s ease-in-out 1.82236s; stroke-dasharray: 75.5994, 75.5994; stroke-dashoffset: 0;"></path></g><line x1="5" y1="60" x2="95" y2="60" stroke="#fff" stroke-width="1px" stroke-linecap="round"></line></svg>